<svg width="1483.001" height="93.9" viewBox="0 0 1483.001 93.9" xmlns="http://www.w3.org/2000/svg"><g id="svgGroup" stroke-linecap="round" fill-rule="evenodd" font-size="9pt" stroke="#000" stroke-width="0.25mm" fill="none" style="stroke:#000;stroke-width:0.25mm;fill:none"><path d="M 175.2 43.7 L 175.2 74.2 L 173.2 74.2 L 173.2 43.7 A 30.752 30.752 0 0 0 172.718 38.071 Q 171.695 32.582 168.5 29.15 A 15.299 15.299 0 0 0 160.652 24.697 Q 158.166 24.102 155.223 24.1 A 28.964 28.964 0 0 0 155.2 24.1 A 25.628 25.628 0 0 0 148.556 24.916 A 18.478 18.478 0 0 0 139.7 30.15 Q 134 36.2 134 46.1 L 134 74.2 L 132 74.2 L 132 43.7 A 30.752 30.752 0 0 0 131.518 38.071 Q 130.495 32.582 127.3 29.15 A 15.299 15.299 0 0 0 119.452 24.697 Q 116.966 24.102 114.023 24.1 A 28.964 28.964 0 0 0 114 24.1 A 25.628 25.628 0 0 0 107.356 24.916 A 18.478 18.478 0 0 0 98.5 30.15 Q 92.8 36.2 92.8 46.1 L 92.8 74.2 L 90.8 74.2 L 90.8 22.5 L 92.8 22.5 L 92.8 36.2 Q 95.1 29.6 100.6 25.9 A 21.456 21.456 0 0 1 109.139 22.58 A 28.752 28.752 0 0 1 113.9 22.2 Q 121.8 22.2 126.9 26.15 A 16.977 16.977 0 0 1 132.292 33.46 A 23.747 23.747 0 0 1 133.5 37.6 A 21.215 21.215 0 0 1 137.26 30.084 A 20.148 20.148 0 0 1 141.15 26.35 A 21.057 21.057 0 0 1 150.055 22.626 A 28.707 28.707 0 0 1 155.1 22.2 A 25.624 25.624 0 0 1 161.271 22.901 A 17.476 17.476 0 0 1 169.85 27.75 A 17.917 17.917 0 0 1 174.063 35.143 Q 174.911 37.951 175.127 41.332 A 37.269 37.269 0 0 1 175.2 43.7 Z M 0 64.6 L 1.4 63.3 A 20.796 20.796 0 0 0 5.506 66.95 Q 7.938 68.62 11.1 69.95 Q 17.4 72.6 24.5 72.6 Q 31.328 72.6 36.057 70.893 A 17.488 17.488 0 0 0 40.95 68.25 A 14.755 14.755 0 0 0 44.792 63.87 Q 46.497 60.833 46.5 57.015 A 17.452 17.452 0 0 0 46.5 57 A 16.302 16.302 0 0 0 46.125 53.403 Q 45.458 50.45 43.6 48.4 Q 40.7 45.2 36.45 43.6 Q 32.388 42.071 25.632 40.45 A 183.699 183.699 0 0 0 25 40.3 A 167.104 167.104 0 0 1 20.5 39.127 Q 16.2 37.938 13.218 36.81 A 47.711 47.711 0 0 1 12.8 36.65 Q 8.3 34.9 5.15 31.25 A 12.455 12.455 0 0 1 2.52 26.052 Q 2.049 24.173 2.005 21.961 A 23.091 23.091 0 0 1 2 21.5 Q 2 16.7 4.5 12.7 A 15.142 15.142 0 0 1 8.456 8.514 A 21.454 21.454 0 0 1 12.3 6.3 A 25.024 25.024 0 0 1 17.717 4.597 Q 20.312 4.077 23.312 3.945 A 47.469 47.469 0 0 1 25.4 3.9 Q 31 3.9 36.4 5.65 Q 41.8 7.4 45.7 10.3 L 44.6 11.9 Q 40.5 8.9 35.45 7.35 A 34.626 34.626 0 0 0 27.651 5.874 A 31.358 31.358 0 0 0 25.5 5.8 Q 18.62 5.8 13.886 7.711 A 17.087 17.087 0 0 0 9.5 10.25 A 15.072 15.072 0 0 0 5.645 14.786 A 14.088 14.088 0 0 0 4 21.6 A 16.322 16.322 0 0 0 4.391 25.276 A 11.067 11.067 0 0 0 6.9 30.25 A 17.771 17.771 0 0 0 14.033 35.075 A 20.63 20.63 0 0 0 14.1 35.1 A 64.866 64.866 0 0 0 17.08 36.12 Q 20.681 37.263 25.7 38.5 A 167.628 167.628 0 0 1 30.147 39.673 Q 34.706 40.947 37.8 42.15 Q 42.3 43.9 45.4 47.45 Q 48.343 50.82 48.492 56.397 A 22.517 22.517 0 0 1 48.5 57 Q 48.5 61.8 45.9 65.8 A 15.548 15.548 0 0 1 41.743 70.039 A 21.821 21.821 0 0 1 37.95 72.15 A 25.491 25.491 0 0 1 32.762 73.756 Q 30.244 74.268 27.331 74.427 A 49.899 49.899 0 0 1 24.6 74.5 Q 17 74.5 10.3 71.75 A 32.28 32.28 0 0 1 5.368 69.243 Q 2.137 67.213 0 64.6 Z M 519.7 22.5 L 521.7 22.5 L 521.7 69.6 A 41.326 41.326 0 0 1 521.18 76.394 Q 520.583 79.965 519.303 82.788 A 17.54 17.54 0 0 1 515.8 87.95 Q 511.041 92.75 502.247 93.678 A 42.418 42.418 0 0 1 497.8 93.9 A 38.485 38.485 0 0 1 488.733 92.862 A 33.863 33.863 0 0 1 484.65 91.6 A 29.35 29.35 0 0 1 479.494 89.07 A 22.403 22.403 0 0 1 474.9 85.3 L 476.3 83.9 A 27.439 27.439 0 0 0 485.714 89.867 A 31.278 31.278 0 0 0 485.8 89.9 A 32.257 32.257 0 0 0 495.004 91.9 A 38.325 38.325 0 0 0 497.8 92 Q 504.926 92 509.684 89.834 A 15.748 15.748 0 0 0 514.35 86.65 Q 518.465 82.535 519.415 74.842 A 40.389 40.389 0 0 0 519.7 69.9 L 519.7 56.9 Q 517 64 510.75 68.25 A 24.651 24.651 0 0 1 498.078 72.449 A 30.462 30.462 0 0 1 496.3 72.5 Q 489.1 72.5 483.3 69.25 Q 477.5 66 474.2 60.25 A 25.076 25.076 0 0 1 470.952 49.079 A 30.289 30.289 0 0 1 470.9 47.3 Q 470.9 40.1 474.2 34.35 Q 477.5 28.6 483.3 25.4 A 25.945 25.945 0 0 1 494.412 22.256 A 31.209 31.209 0 0 1 496.3 22.2 A 27.112 27.112 0 0 1 504.908 23.529 A 24.02 24.02 0 0 1 510.75 26.4 Q 517 30.6 519.7 37.6 L 519.7 22.5 Z M 1193.6 6.1 L 1150.5 6.1 L 1150.5 39.7 L 1189.1 39.7 L 1189.1 41.6 L 1150.5 41.6 L 1150.5 74.2 L 1148.5 74.2 L 1148.5 4.2 L 1193.6 4.2 L 1193.6 6.1 Z M 454.6 43.7 L 454.6 74.2 L 452.6 74.2 L 452.6 43.7 A 29.827 29.827 0 0 0 452.102 38.071 Q 451.046 32.582 447.75 29.15 A 15.78 15.78 0 0 0 440.106 24.81 Q 437.597 24.167 434.621 24.106 A 30.629 30.629 0 0 0 434 24.1 A 27.255 27.255 0 0 0 427.29 24.881 A 19.099 19.099 0 0 0 418.05 30.15 A 20.432 20.432 0 0 0 412.613 41.112 A 28.912 28.912 0 0 0 412.2 46.1 L 412.2 74.2 L 410.2 74.2 L 410.2 22.5 L 412.2 22.5 L 412.2 36.3 Q 414.6 29.7 420.2 25.95 A 21.749 21.749 0 0 1 428.401 22.684 A 29.876 29.876 0 0 1 433.9 22.2 A 27.275 27.275 0 0 1 440.201 22.886 A 18.119 18.119 0 0 1 449.1 27.75 A 17.914 17.914 0 0 1 453.528 35.464 Q 454.6 39.109 454.6 43.7 Z M 963.5 43.7 L 963.5 74.2 L 961.5 74.2 L 961.5 43.7 A 29.827 29.827 0 0 0 961.002 38.071 Q 959.946 32.582 956.65 29.15 A 15.78 15.78 0 0 0 949.006 24.81 Q 946.497 24.167 943.521 24.106 A 30.629 30.629 0 0 0 942.9 24.1 A 27.255 27.255 0 0 0 936.19 24.881 A 19.099 19.099 0 0 0 926.95 30.15 A 20.432 20.432 0 0 0 921.513 41.112 A 28.912 28.912 0 0 0 921.1 46.1 L 921.1 74.2 L 919.1 74.2 L 919.1 22.5 L 921.1 22.5 L 921.1 36.3 Q 923.5 29.7 929.1 25.95 A 21.749 21.749 0 0 1 937.301 22.684 A 29.876 29.876 0 0 1 942.8 22.2 A 27.275 27.275 0 0 1 949.101 22.886 A 18.119 18.119 0 0 1 958 27.75 A 17.914 17.914 0 0 1 962.428 35.464 Q 963.5 39.109 963.5 43.7 Z M 239 22.5 L 241 22.5 L 241 74.2 L 239 74.2 L 239 60.5 Q 236.7 67.1 231.3 70.8 Q 225.9 74.5 218.2 74.5 Q 209.636 74.5 204.298 70.429 A 17.414 17.414 0 0 1 202.6 68.95 A 17.905 17.905 0 0 1 198.034 61.042 Q 197 57.469 197 53 L 197 22.5 L 199 22.5 L 199 53 A 28.882 28.882 0 0 0 199.526 58.692 Q 200.621 64.137 204 67.55 A 16.318 16.318 0 0 0 211.616 71.829 Q 214.179 72.504 217.221 72.588 A 31.734 31.734 0 0 0 218.1 72.6 A 25.058 25.058 0 0 0 224.671 71.784 A 18.091 18.091 0 0 0 233.4 66.55 Q 239 60.5 239 50.6 L 239 22.5 Z M 1443.6 67.4 L 1444.8 65.8 A 19.404 19.404 0 0 0 1448.187 68.386 Q 1450.246 69.645 1452.85 70.65 Q 1457.9 72.6 1463.8 72.6 A 40.526 40.526 0 0 0 1468.386 72.359 Q 1473.156 71.814 1476.068 70.037 A 10.944 10.944 0 0 0 1476.8 69.55 Q 1481 66.5 1481 61.1 A 10.893 10.893 0 0 0 1480.709 58.51 A 7.411 7.411 0 0 0 1478.75 54.95 A 13.354 13.354 0 0 0 1473.851 51.857 A 15.725 15.725 0 0 0 1473.25 51.65 A 44.853 44.853 0 0 0 1470.979 50.989 Q 1468.607 50.359 1465.379 49.712 A 152.735 152.735 0 0 0 1464.3 49.5 Q 1458.2 48.4 1454.45 47.15 Q 1450.7 45.9 1448.15 43.15 A 9.087 9.087 0 0 1 1446.071 39.314 Q 1445.688 37.926 1445.617 36.276 A 17.863 17.863 0 0 1 1445.6 35.5 A 11.613 11.613 0 0 1 1449.419 26.787 A 15.978 15.978 0 0 1 1450.25 26.05 Q 1453.835 23.082 1460.005 22.402 A 35.612 35.612 0 0 1 1463.9 22.2 Q 1468.7 22.2 1473.4 23.65 Q 1478.1 25.1 1481 27.5 L 1479.8 29.1 A 20.25 20.25 0 0 0 1475.168 26.346 A 25.227 25.227 0 0 0 1472.6 25.4 Q 1468.4 24.1 1463.9 24.1 A 33.236 33.236 0 0 0 1459.448 24.378 Q 1457.212 24.681 1455.402 25.315 A 12.772 12.772 0 0 0 1451.75 27.25 Q 1447.767 30.348 1447.701 35.331 A 12.724 12.724 0 0 0 1447.7 35.5 Q 1447.7 39.387 1449.767 41.701 A 7.484 7.484 0 0 0 1450 41.95 A 13.466 13.466 0 0 0 1454.766 45.066 A 16.097 16.097 0 0 0 1455.7 45.4 Q 1459.1 46.5 1464.7 47.5 Q 1470.8 48.7 1474.4 49.9 Q 1478 51.1 1480.5 53.75 Q 1482.838 56.229 1482.99 60.5 A 16.943 16.943 0 0 1 1483 61.1 Q 1483 66.994 1478.425 70.601 A 14.958 14.958 0 0 1 1478.1 70.85 A 16.103 16.103 0 0 1 1473.376 73.213 Q 1469.381 74.5 1463.8 74.5 A 34.219 34.219 0 0 1 1453.137 72.857 A 32.326 32.326 0 0 1 1452.1 72.5 A 30.016 30.016 0 0 1 1448.327 70.845 Q 1446.411 69.832 1444.936 68.625 A 15.629 15.629 0 0 1 1443.6 67.4 Z M 1269 58.4 L 1269 74.2 L 1267 74.2 L 1267 0 L 1269 0 L 1269 38.2 Q 1271.6 30.9 1277.85 26.55 Q 1284.1 22.2 1292.099 22.2 A 25.178 25.178 0 0 1 1302.65 24.412 A 24.604 24.604 0 0 1 1304.85 25.55 Q 1310.6 28.9 1313.9 34.85 A 26.438 26.438 0 0 1 1317.084 45.542 A 32.245 32.245 0 0 1 1317.2 48.3 A 29.336 29.336 0 0 1 1316.037 56.677 A 25.834 25.834 0 0 1 1313.9 61.8 Q 1310.6 67.8 1304.85 71.15 Q 1299.1 74.5 1292.1 74.5 A 25.561 25.561 0 0 1 1283.151 72.966 A 23.497 23.497 0 0 1 1277.8 70.15 Q 1271.6 65.8 1269 58.4 Z M 324 40.3 L 324 74.2 L 322 74.2 L 322 63.2 Q 319.5 68.5 314.45 71.5 A 20.904 20.904 0 0 1 307.534 74.042 A 28.602 28.602 0 0 1 302.3 74.5 A 30.289 30.289 0 0 1 297.06 74.075 Q 294.12 73.558 291.777 72.412 A 15.157 15.157 0 0 1 288.85 70.55 A 12.711 12.711 0 0 1 284.046 61.264 A 16.965 16.965 0 0 1 284 60 A 14.35 14.35 0 0 1 284.803 55.106 A 12.444 12.444 0 0 1 288.35 49.95 Q 292.53 46.251 301.648 46.106 A 47.314 47.314 0 0 1 302.4 46.1 L 322 46.1 L 322 40.4 A 25.168 25.168 0 0 0 321.597 35.742 Q 321.11 33.161 320.035 31.147 A 12.169 12.169 0 0 0 317.85 28.2 A 13.167 13.167 0 0 0 312.52 25.062 Q 310.46 24.401 307.962 24.194 A 28.661 28.661 0 0 0 305.6 24.1 A 28.373 28.373 0 0 0 297.308 25.29 A 26.196 26.196 0 0 0 295.15 26.05 A 27.374 27.374 0 0 0 288.997 29.46 A 24.525 24.525 0 0 0 286.8 31.3 L 285.4 29.9 A 25.544 25.544 0 0 1 292.313 25.147 A 30.428 30.428 0 0 1 294.4 24.25 Q 299.7 22.2 305.5 22.2 A 27.875 27.875 0 0 1 310.83 22.677 Q 313.912 23.278 316.303 24.637 A 14.267 14.267 0 0 1 319.25 26.85 A 14.956 14.956 0 0 1 323.123 33.504 Q 323.808 35.859 323.958 38.682 A 30.518 30.518 0 0 1 324 40.3 Z M 687.3 40.3 L 687.3 74.2 L 685.3 74.2 L 685.3 63.2 Q 682.8 68.5 677.75 71.5 A 20.904 20.904 0 0 1 670.834 74.042 A 28.602 28.602 0 0 1 665.6 74.5 A 30.289 30.289 0 0 1 660.36 74.075 Q 657.42 73.558 655.077 72.412 A 15.157 15.157 0 0 1 652.15 70.55 A 12.711 12.711 0 0 1 647.346 61.264 A 16.965 16.965 0 0 1 647.3 60 A 14.35 14.35 0 0 1 648.103 55.106 A 12.444 12.444 0 0 1 651.65 49.95 Q 655.83 46.251 664.948 46.106 A 47.314 47.314 0 0 1 665.7 46.1 L 685.3 46.1 L 685.3 40.4 A 25.168 25.168 0 0 0 684.897 35.742 Q 684.41 33.161 683.335 31.147 A 12.169 12.169 0 0 0 681.15 28.2 A 13.167 13.167 0 0 0 675.82 25.062 Q 673.76 24.401 671.262 24.194 A 28.661 28.661 0 0 0 668.9 24.1 A 28.373 28.373 0 0 0 660.608 25.29 A 26.196 26.196 0 0 0 658.45 26.05 A 27.374 27.374 0 0 0 652.297 29.46 A 24.525 24.525 0 0 0 650.1 31.3 L 648.7 29.9 A 25.544 25.544 0 0 1 655.613 25.147 A 30.428 30.428 0 0 1 657.7 24.25 Q 663 22.2 668.8 22.2 A 27.875 27.875 0 0 1 674.13 22.677 Q 677.212 23.278 679.603 24.637 A 14.267 14.267 0 0 1 682.55 26.85 A 14.956 14.956 0 0 1 686.423 33.504 Q 687.108 35.859 687.258 38.682 A 30.518 30.518 0 0 1 687.3 40.3 Z M 783.5 40.3 L 783.5 74.2 L 781.5 74.2 L 781.5 63.2 Q 779 68.5 773.95 71.5 A 20.904 20.904 0 0 1 767.034 74.042 A 28.602 28.602 0 0 1 761.8 74.5 A 30.289 30.289 0 0 1 756.56 74.075 Q 753.62 73.558 751.277 72.412 A 15.157 15.157 0 0 1 748.35 70.55 A 12.711 12.711 0 0 1 743.546 61.264 A 16.965 16.965 0 0 1 743.5 60 A 14.35 14.35 0 0 1 744.303 55.106 A 12.444 12.444 0 0 1 747.85 49.95 Q 752.03 46.251 761.148 46.106 A 47.314 47.314 0 0 1 761.9 46.1 L 781.5 46.1 L 781.5 40.4 A 25.168 25.168 0 0 0 781.097 35.742 Q 780.61 33.161 779.535 31.147 A 12.169 12.169 0 0 0 777.35 28.2 A 13.167 13.167 0 0 0 772.02 25.062 Q 769.96 24.401 767.462 24.194 A 28.661 28.661 0 0 0 765.1 24.1 A 28.373 28.373 0 0 0 756.808 25.29 A 26.196 26.196 0 0 0 754.65 26.05 A 27.374 27.374 0 0 0 748.497 29.46 A 24.525 24.525 0 0 0 746.3 31.3 L 744.9 29.9 A 25.544 25.544 0 0 1 751.813 25.147 A 30.428 30.428 0 0 1 753.9 24.25 Q 759.2 22.2 765 22.2 A 27.875 27.875 0 0 1 770.33 22.677 Q 773.412 23.278 775.803 24.637 A 14.267 14.267 0 0 1 778.75 26.85 A 14.956 14.956 0 0 1 782.623 33.504 Q 783.308 35.859 783.458 38.682 A 30.518 30.518 0 0 1 783.5 40.3 Z M 1244.6 40.3 L 1244.6 74.2 L 1242.6 74.2 L 1242.6 63.2 Q 1240.1 68.5 1235.05 71.5 A 20.904 20.904 0 0 1 1228.134 74.042 A 28.602 28.602 0 0 1 1222.9 74.5 A 30.289 30.289 0 0 1 1217.66 74.075 Q 1214.72 73.558 1212.377 72.412 A 15.157 15.157 0 0 1 1209.45 70.55 A 12.711 12.711 0 0 1 1204.646 61.264 A 16.965 16.965 0 0 1 1204.6 60 A 14.35 14.35 0 0 1 1205.403 55.106 A 12.444 12.444 0 0 1 1208.95 49.95 Q 1213.13 46.251 1222.248 46.106 A 47.314 47.314 0 0 1 1223 46.1 L 1242.6 46.1 L 1242.6 40.4 A 25.168 25.168 0 0 0 1242.197 35.742 Q 1241.71 33.161 1240.635 31.147 A 12.169 12.169 0 0 0 1238.45 28.2 A 13.167 13.167 0 0 0 1233.12 25.062 Q 1231.06 24.401 1228.562 24.194 A 28.661 28.661 0 0 0 1226.2 24.1 A 28.373 28.373 0 0 0 1217.908 25.29 A 26.196 26.196 0 0 0 1215.75 26.05 A 27.374 27.374 0 0 0 1209.597 29.46 A 24.525 24.525 0 0 0 1207.4 31.3 L 1206 29.9 A 25.544 25.544 0 0 1 1212.913 25.147 A 30.428 30.428 0 0 1 1215 24.25 Q 1220.3 22.2 1226.1 22.2 A 27.875 27.875 0 0 1 1231.43 22.677 Q 1234.512 23.278 1236.903 24.637 A 14.267 14.267 0 0 1 1239.85 26.85 A 14.956 14.956 0 0 1 1243.723 33.504 Q 1244.408 35.859 1244.558 38.682 A 30.518 30.518 0 0 1 1244.6 40.3 Z M 902.2 47.8 L 902.2 48.3 L 856.2 48.3 A 27.08 27.08 0 0 0 857.264 56.005 A 23.624 23.624 0 0 0 859.3 60.85 Q 862.4 66.4 867.85 69.5 A 23.896 23.896 0 0 0 878.421 72.552 A 28.776 28.776 0 0 0 880.1 72.6 Q 885.4 72.6 890.05 70.55 Q 894.7 68.5 897.7 64.6 L 899.1 66 Q 895.7 70.1 890.7 72.3 Q 885.7 74.5 880.1 74.5 A 27.987 27.987 0 0 1 871.96 73.35 A 24.544 24.544 0 0 1 866.85 71.15 Q 861 67.8 857.65 61.8 A 26.579 26.579 0 0 1 854.382 50.607 A 32.101 32.101 0 0 1 854.3 48.3 A 31.131 31.131 0 0 1 855.281 40.353 A 26.411 26.411 0 0 1 857.4 34.85 Q 860.5 28.9 865.95 25.55 Q 871.4 22.2 878.2 22.2 Q 884.9 22.2 890.4 25.5 Q 895.9 28.8 899.05 34.6 A 26.061 26.061 0 0 1 902.027 44.419 A 32.336 32.336 0 0 1 902.2 47.8 Z M 1066.5 47.8 L 1066.5 48.3 L 1020.5 48.3 A 27.08 27.08 0 0 0 1021.564 56.005 A 23.624 23.624 0 0 0 1023.6 60.85 Q 1026.7 66.4 1032.15 69.5 A 23.896 23.896 0 0 0 1042.721 72.552 A 28.776 28.776 0 0 0 1044.4 72.6 Q 1049.7 72.6 1054.35 70.55 Q 1059 68.5 1062 64.6 L 1063.4 66 Q 1060 70.1 1055 72.3 Q 1050 74.5 1044.4 74.5 A 27.987 27.987 0 0 1 1036.26 73.35 A 24.544 24.544 0 0 1 1031.15 71.15 Q 1025.3 67.8 1021.95 61.8 A 26.579 26.579 0 0 1 1018.682 50.607 A 32.101 32.101 0 0 1 1018.6 48.3 A 31.131 31.131 0 0 1 1019.581 40.353 A 26.411 26.411 0 0 1 1021.7 34.85 Q 1024.8 28.9 1030.25 25.55 Q 1035.7 22.2 1042.5 22.2 Q 1049.2 22.2 1054.7 25.5 Q 1060.2 28.8 1063.35 34.6 A 26.061 26.061 0 0 1 1066.327 44.419 A 32.336 32.336 0 0 1 1066.5 47.8 Z M 843.8 30.6 L 842.4 32.1 Q 839.5 28.1 835 26.1 Q 830.5 24.1 825.2 24.1 A 25.28 25.28 0 0 0 817.536 25.233 A 22.572 22.572 0 0 0 813.15 27.15 Q 807.8 30.2 804.8 35.75 A 25.079 25.079 0 0 0 801.924 45.516 A 30.752 30.752 0 0 0 801.8 48.3 A 28.62 28.62 0 0 0 802.647 55.392 A 23.66 23.66 0 0 0 804.8 60.9 Q 807.8 66.4 813.15 69.5 A 23.168 23.168 0 0 0 823.546 72.552 A 27.922 27.922 0 0 0 825.2 72.6 A 24.626 24.626 0 0 0 832.405 71.567 A 22.524 22.524 0 0 0 835 70.6 Q 839.5 68.6 842.4 64.6 L 843.8 66.1 Q 840.6 70.2 835.75 72.35 A 25.415 25.415 0 0 1 826.349 74.478 A 29.561 29.561 0 0 1 825.2 74.5 A 27.32 27.32 0 0 1 817.06 73.319 A 24.266 24.266 0 0 1 812.1 71.15 Q 806.3 67.8 803.05 61.85 A 26.63 26.63 0 0 1 799.979 51.772 A 33.049 33.049 0 0 1 799.8 48.3 Q 799.8 40.7 803.05 34.75 Q 806.3 28.8 812.1 25.5 A 25.393 25.393 0 0 1 822.955 22.281 A 30.834 30.834 0 0 1 825.2 22.2 A 26.495 26.495 0 0 1 833.113 23.36 A 24.338 24.338 0 0 1 835.75 24.35 Q 840.6 26.5 843.8 30.6 Z M 1435.3 30.6 L 1433.9 32.1 Q 1431 28.1 1426.5 26.1 Q 1422 24.1 1416.7 24.1 A 25.28 25.28 0 0 0 1409.036 25.233 A 22.572 22.572 0 0 0 1404.65 27.15 Q 1399.3 30.2 1396.3 35.75 A 25.079 25.079 0 0 0 1393.424 45.516 A 30.752 30.752 0 0 0 1393.3 48.3 A 28.62 28.62 0 0 0 1394.147 55.392 A 23.66 23.66 0 0 0 1396.3 60.9 Q 1399.3 66.4 1404.65 69.5 A 23.168 23.168 0 0 0 1415.046 72.552 A 27.922 27.922 0 0 0 1416.7 72.6 A 24.626 24.626 0 0 0 1423.905 71.567 A 22.524 22.524 0 0 0 1426.5 70.6 Q 1431 68.6 1433.9 64.6 L 1435.3 66.1 Q 1432.1 70.2 1427.25 72.35 A 25.415 25.415 0 0 1 1417.849 74.478 A 29.561 29.561 0 0 1 1416.7 74.5 A 27.32 27.32 0 0 1 1408.56 73.319 A 24.266 24.266 0 0 1 1403.6 71.15 Q 1397.8 67.8 1394.55 61.85 A 26.63 26.63 0 0 1 1391.479 51.772 A 33.049 33.049 0 0 1 1391.3 48.3 Q 1391.3 40.7 1394.55 34.75 Q 1397.8 28.8 1403.6 25.5 A 25.393 25.393 0 0 1 1414.455 22.281 A 30.834 30.834 0 0 1 1416.7 22.2 A 26.495 26.495 0 0 1 1424.613 23.36 A 24.338 24.338 0 0 1 1427.25 24.35 Q 1432.1 26.5 1435.3 30.6 Z M 571.5 74.2 L 571.5 4.2 L 598 4.2 Q 608.9 4.2 617.25 8.7 Q 625.6 13.2 630.25 21.2 A 34.611 34.611 0 0 1 634.844 37.036 A 41.662 41.662 0 0 1 634.9 39.2 A 36.948 36.948 0 0 1 633.084 50.919 A 33.447 33.447 0 0 1 630.25 57.2 Q 625.6 65.2 617.25 69.7 A 37.358 37.358 0 0 1 604.563 73.761 A 47.585 47.585 0 0 1 598 74.2 L 571.5 74.2 Z M 573.5 72.3 L 597.8 72.3 A 43.96 43.96 0 0 0 607.518 71.27 A 34.638 34.638 0 0 0 616.25 68.05 Q 624.2 63.8 628.55 56.25 A 32.818 32.818 0 0 0 632.814 41.833 A 39.796 39.796 0 0 0 632.9 39.2 A 35.633 35.633 0 0 0 631.366 28.606 A 31.631 31.631 0 0 0 628.55 22.15 Q 624.2 14.6 616.25 10.35 A 35.592 35.592 0 0 0 604.717 6.602 A 46.063 46.063 0 0 0 597.8 6.1 L 573.5 6.1 L 573.5 72.3 Z M 368.4 69.4 L 369.8 70.8 A 9.973 9.973 0 0 1 367.154 72.777 A 13.053 13.053 0 0 1 365.35 73.55 Q 362.6 74.5 359.7 74.5 A 16.713 16.713 0 0 1 355.979 74.111 Q 353.398 73.521 351.528 72.04 A 10.066 10.066 0 0 1 350.45 71.05 A 11.619 11.619 0 0 1 347.567 65.432 A 17.046 17.046 0 0 1 347.2 61.8 L 347.2 24.4 L 337.2 24.4 L 337.2 22.5 L 347.2 22.5 L 347.2 11.2 L 349.2 11.2 L 349.2 22.5 L 366.7 22.5 L 366.7 24.4 L 349.2 24.4 L 349.2 61.3 A 17.995 17.995 0 0 0 349.464 64.484 Q 350.044 67.706 351.9 69.7 A 8.634 8.634 0 0 0 355.922 72.103 Q 357.324 72.507 359.008 72.583 A 17.637 17.637 0 0 0 359.8 72.6 A 13.851 13.851 0 0 0 363.988 71.993 A 11.341 11.341 0 0 0 368.4 69.4 Z M 731.7 69.4 L 733.1 70.8 A 9.973 9.973 0 0 1 730.454 72.777 A 13.053 13.053 0 0 1 728.65 73.55 Q 725.9 74.5 723 74.5 A 16.713 16.713 0 0 1 719.279 74.111 Q 716.698 73.521 714.828 72.04 A 10.066 10.066 0 0 1 713.75 71.05 A 11.619 11.619 0 0 1 710.867 65.432 A 17.046 17.046 0 0 1 710.5 61.8 L 710.5 24.4 L 700.5 24.4 L 700.5 22.5 L 710.5 22.5 L 710.5 11.2 L 712.5 11.2 L 712.5 22.5 L 730 22.5 L 730 24.4 L 712.5 24.4 L 712.5 61.3 A 17.995 17.995 0 0 0 712.764 64.484 Q 713.344 67.706 715.2 69.7 A 8.634 8.634 0 0 0 719.222 72.103 Q 720.624 72.507 722.308 72.583 A 17.637 17.637 0 0 0 723.1 72.6 A 13.851 13.851 0 0 0 727.288 71.993 A 11.341 11.341 0 0 0 731.7 69.4 Z M 1007.9 69.4 L 1009.3 70.8 A 9.973 9.973 0 0 1 1006.654 72.777 A 13.053 13.053 0 0 1 1004.85 73.55 Q 1002.1 74.5 999.2 74.5 A 16.713 16.713 0 0 1 995.479 74.111 Q 992.898 73.521 991.028 72.04 A 10.066 10.066 0 0 1 989.95 71.05 A 11.619 11.619 0 0 1 987.067 65.432 A 17.046 17.046 0 0 1 986.7 61.8 L 986.7 24.4 L 976.7 24.4 L 976.7 22.5 L 986.7 22.5 L 986.7 11.2 L 988.7 11.2 L 988.7 22.5 L 1006.2 22.5 L 1006.2 24.4 L 988.7 24.4 L 988.7 61.3 A 17.995 17.995 0 0 0 988.964 64.484 Q 989.544 67.706 991.4 69.7 A 8.634 8.634 0 0 0 995.422 72.103 Q 996.824 72.507 998.508 72.583 A 17.637 17.637 0 0 0 999.3 72.6 A 13.851 13.851 0 0 0 1003.488 71.993 A 11.341 11.341 0 0 0 1007.9 69.4 Z M 1105.7 22.2 L 1105.7 24.2 L 1105.1 24.2 Q 1095.8 24.2 1090.6 30.15 A 20.011 20.011 0 0 0 1086.395 38.22 Q 1085.4 41.894 1085.4 46.4 L 1085.4 74.2 L 1083.4 74.2 L 1083.4 22.5 L 1085.4 22.5 L 1085.4 35.9 A 21.233 21.233 0 0 1 1088.336 30.082 A 18.087 18.087 0 0 1 1092.8 25.75 Q 1098 22.2 1105.7 22.2 Z M 1356.4 22.2 L 1356.4 24.2 L 1355.8 24.2 Q 1346.5 24.2 1341.3 30.15 A 20.011 20.011 0 0 0 1337.095 38.22 Q 1336.1 41.894 1336.1 46.4 L 1336.1 74.2 L 1334.1 74.2 L 1334.1 22.5 L 1336.1 22.5 L 1336.1 35.9 A 21.233 21.233 0 0 1 1339.036 30.082 A 18.087 18.087 0 0 1 1343.5 25.75 Q 1348.7 22.2 1356.4 22.2 Z M 264 74.2 L 264 0 L 266 0 L 266 74.2 L 264 74.2 Z M 1292.1 72.6 A 23.474 23.474 0 0 0 1301 70.928 A 22.396 22.396 0 0 0 1303.9 69.5 Q 1309.2 66.4 1312.2 60.85 A 25.079 25.079 0 0 0 1315.076 51.084 A 30.752 30.752 0 0 0 1315.2 48.3 A 28.068 28.068 0 0 0 1314.251 40.884 A 24.098 24.098 0 0 0 1312.2 35.75 Q 1309.2 30.2 1303.9 27.15 A 23.096 23.096 0 0 0 1292.707 24.107 A 27.353 27.353 0 0 0 1292.1 24.1 A 23.872 23.872 0 0 0 1283.42 25.659 A 22.528 22.528 0 0 0 1280.3 27.15 Q 1275 30.2 1272 35.75 A 25.079 25.079 0 0 0 1269.124 45.516 A 30.752 30.752 0 0 0 1269 48.3 A 28.068 28.068 0 0 0 1269.949 55.716 A 24.098 24.098 0 0 0 1272 60.85 Q 1275 66.4 1280.3 69.5 A 22.853 22.853 0 0 0 1291.695 72.597 A 27.023 27.023 0 0 0 1292.1 72.6 Z M 496.3 70.6 A 26.154 26.154 0 0 0 503.78 69.56 A 22.987 22.987 0 0 0 508.35 67.65 Q 513.7 64.7 516.7 59.35 A 23.638 23.638 0 0 0 519.627 49.361 A 28.597 28.597 0 0 0 519.7 47.3 A 25.612 25.612 0 0 0 518.67 39.929 A 22.379 22.379 0 0 0 516.7 35.3 Q 513.7 30 508.35 27.05 A 23.909 23.909 0 0 0 498.462 24.179 A 29.017 29.017 0 0 0 496.3 24.1 A 26.154 26.154 0 0 0 488.82 25.14 A 22.987 22.987 0 0 0 484.25 27.05 Q 478.9 30 475.9 35.3 Q 472.9 40.6 472.9 47.3 A 25.748 25.748 0 0 0 473.958 54.78 A 22.778 22.778 0 0 0 475.9 59.35 Q 478.9 64.7 484.25 67.65 A 23.909 23.909 0 0 0 494.138 70.521 A 29.017 29.017 0 0 0 496.3 70.6 Z M 856.2 46.4 L 900.3 46.4 A 25.058 25.058 0 0 0 898.403 37.794 A 23.499 23.499 0 0 0 897 35 Q 894 29.9 889.1 27 A 20.961 20.961 0 0 0 878.387 24.101 A 24.722 24.722 0 0 0 878.2 24.1 A 21.347 21.347 0 0 0 869.537 25.852 A 20.696 20.696 0 0 0 867.3 27 Q 862.4 29.9 859.45 35 A 24.527 24.527 0 0 0 856.263 45.423 A 28.854 28.854 0 0 0 856.2 46.4 Z M 1020.5 46.4 L 1064.6 46.4 A 25.058 25.058 0 0 0 1062.703 37.794 A 23.499 23.499 0 0 0 1061.3 35 Q 1058.3 29.9 1053.4 27 A 20.961 20.961 0 0 0 1042.687 24.101 A 24.722 24.722 0 0 0 1042.5 24.1 A 21.347 21.347 0 0 0 1033.837 25.852 A 20.696 20.696 0 0 0 1031.6 27 Q 1026.7 29.9 1023.75 35 A 24.527 24.527 0 0 0 1020.563 45.423 A 28.854 28.854 0 0 0 1020.5 46.4 Z M 65.8 74.2 L 65.8 22.5 L 67.8 22.5 L 67.8 74.2 L 65.8 74.2 Z M 385.2 74.2 L 385.2 22.5 L 387.2 22.5 L 387.2 74.2 L 385.2 74.2 Z M 1372.4 74.2 L 1372.4 22.5 L 1374.4 22.5 L 1374.4 74.2 L 1372.4 74.2 Z M 322 59.4 L 322 48 L 302.3 48 Q 294.336 48 290.372 50.876 A 10.005 10.005 0 0 0 289.95 51.2 A 10.385 10.385 0 0 0 286.041 58.807 A 14.395 14.395 0 0 0 286 59.9 A 13.024 13.024 0 0 0 286.656 64.128 A 10.836 10.836 0 0 0 290.3 69.2 A 14.433 14.433 0 0 0 295.078 71.64 Q 297.133 72.27 299.601 72.487 A 30.91 30.91 0 0 0 302.3 72.6 A 24.014 24.014 0 0 0 310.411 71.311 Q 318.356 68.475 322 59.4 Z M 685.3 59.4 L 685.3 48 L 665.6 48 Q 657.636 48 653.672 50.876 A 10.005 10.005 0 0 0 653.25 51.2 A 10.385 10.385 0 0 0 649.341 58.807 A 14.395 14.395 0 0 0 649.3 59.9 A 13.024 13.024 0 0 0 649.956 64.128 A 10.836 10.836 0 0 0 653.6 69.2 A 14.433 14.433 0 0 0 658.378 71.64 Q 660.433 72.27 662.901 72.487 A 30.91 30.91 0 0 0 665.6 72.6 A 24.014 24.014 0 0 0 673.711 71.311 Q 681.656 68.475 685.3 59.4 Z M 781.5 59.4 L 781.5 48 L 761.8 48 Q 753.836 48 749.872 50.876 A 10.005 10.005 0 0 0 749.45 51.2 A 10.385 10.385 0 0 0 745.541 58.807 A 14.395 14.395 0 0 0 745.5 59.9 A 13.024 13.024 0 0 0 746.156 64.128 A 10.836 10.836 0 0 0 749.8 69.2 A 14.433 14.433 0 0 0 754.578 71.64 Q 756.633 72.27 759.101 72.487 A 30.91 30.91 0 0 0 761.8 72.6 A 24.014 24.014 0 0 0 769.911 71.311 Q 777.856 68.475 781.5 59.4 Z M 1242.6 59.4 L 1242.6 48 L 1222.9 48 Q 1214.936 48 1210.972 50.876 A 10.005 10.005 0 0 0 1210.55 51.2 A 10.385 10.385 0 0 0 1206.641 58.807 A 14.395 14.395 0 0 0 1206.6 59.9 A 13.024 13.024 0 0 0 1207.256 64.128 A 10.836 10.836 0 0 0 1210.9 69.2 A 14.433 14.433 0 0 0 1215.678 71.64 Q 1217.733 72.27 1220.201 72.487 A 30.91 30.91 0 0 0 1222.9 72.6 A 24.014 24.014 0 0 0 1231.011 71.311 Q 1238.956 68.475 1242.6 59.4 Z M 66.8 8.2 Q 65.7 8.2 64.95 7.4 A 2.89 2.89 0 0 1 64.424 6.634 A 2.442 2.442 0 0 1 64.2 5.6 A 2.659 2.659 0 0 1 64.399 4.559 A 2.52 2.52 0 0 1 64.95 3.75 A 2.508 2.508 0 0 1 66.766 3 A 3.201 3.201 0 0 1 66.8 3 Q 67.8 3 68.6 3.75 Q 69.4 4.5 69.4 5.6 A 2.381 2.381 0 0 1 68.872 7.093 A 3.272 3.272 0 0 1 68.6 7.4 A 2.949 2.949 0 0 1 67.917 7.918 A 2.319 2.319 0 0 1 66.8 8.2 Z M 386.2 8.2 Q 385.1 8.2 384.35 7.4 A 2.89 2.89 0 0 1 383.824 6.634 A 2.442 2.442 0 0 1 383.6 5.6 A 2.659 2.659 0 0 1 383.799 4.559 A 2.52 2.52 0 0 1 384.35 3.75 A 2.508 2.508 0 0 1 386.166 3 A 3.201 3.201 0 0 1 386.2 3 Q 387.2 3 388 3.75 Q 388.8 4.5 388.8 5.6 A 2.381 2.381 0 0 1 388.272 7.093 A 3.272 3.272 0 0 1 388 7.4 A 2.949 2.949 0 0 1 387.317 7.918 A 2.319 2.319 0 0 1 386.2 8.2 Z M 1373.4 8.2 Q 1372.3 8.2 1371.55 7.4 A 2.89 2.89 0 0 1 1371.024 6.634 A 2.442 2.442 0 0 1 1370.8 5.6 A 2.659 2.659 0 0 1 1370.999 4.559 A 2.52 2.52 0 0 1 1371.55 3.75 A 2.508 2.508 0 0 1 1373.366 3 A 3.201 3.201 0 0 1 1373.4 3 Q 1374.4 3 1375.2 3.75 Q 1376 4.5 1376 5.6 A 2.381 2.381 0 0 1 1375.472 7.093 A 3.272 3.272 0 0 1 1375.2 7.4 A 2.949 2.949 0 0 1 1374.517 7.918 A 2.319 2.319 0 0 1 1373.4 8.2 Z" vector-effect="non-scaling-stroke"/></g></svg>